<svg width="18" height="18" viewBox="0 0 18 18" fill="none"><g clip-path="url(#popular-icon)"><path d="M17.5 9.5C17.5012 8.49898 17.3252 7.50565 16.98 6.566C16.75 9.2605 15.3135 10.6445 13.8125 10C12.4065 9.396 13.354 7.0415 13.424 5.918C13.542 4.0135 13.418 1.8335 9.95851 0.0210037C11.396 2.771 10.125 4.4795 8.79201 4.5835C7.31301 4.699 5.95851 3.3125 6.45851 1.0625C4.83951 2.2555 4.79251 4.2635 5.29201 5.5625C5.81301 6.9165 5.27101 8.0415 4.00051 8.1665C2.58051 8.3065 1.79151 6.646 2.51901 4C1.21302 5.5347 0.49714 7.48484 0.500009 9.5C0.500009 14.1945 4.30551 18 9.00001 18C13.6945 18 17.5 14.1945 17.5 9.5Z" fill="#F4900C"></path><path d="M14.197 11.9995C14.271 13.5415 12.9165 14.146 12.1875 13.854C11.1345 13.4325 11.417 12.7085 11.146 11.2085C10.875 9.7085 9.8335 8.667 8.292 8.2085C9.417 11.375 7.6685 12.542 6.752 12.7505C5.816 12.9635 4.8755 12.75 4.768 10.747C4.20689 11.3039 3.76174 11.9665 3.45827 12.6965C3.15481 13.4265 2.99905 14.2094 3 15C3 15.184 3.0115 15.365 3.0275 15.545C4.5625 17.062 6.671 18 9 18C11.329 18 13.4375 17.062 14.9725 15.545C14.9885 15.365 15 15.184 15 15C15 13.9065 14.708 12.882 14.197 11.9995Z" fill="#FFCC4D"></path></g><defs><clipPath id="popular-icon"><rect width="18" height="18" fill="white"></rect></clipPath></defs></svg>